<svg xmlns="http://www.w3.org/2000/svg" aria-hidden="true" style="position:absolute;width:0;height:0;overflow:hidden"><defs>
<symbol id="icon-Group-2" viewBox="0 0 179 32"><path fill="#fff" d="M61.214 9.894H71.59c1.06-2.892.231-7.868-14.236-7.239-5.516.05-17.204.955-20.51 11.823-1.066 3.911 1.12 11.377 15.201 9.169 3.414-.583 10.955-2.996 14.236-.483l4.585-11.341H56.871l-1.448 4.102h3.619c-.794 1.633-3.583 2.538-6.756 2.654-3.012-.117-5.351-.945-5.067-3.861.32-2.966 3.412-7.339 9.652-7.239 1.83-.024 3.714.579 4.343 2.413zm15.441-6.515h9.412l-7.963 20.027h-9.412l7.963-20.027zm2.171 20.027L98.131 3.379h11.823l1.93 20.027h-9.652l-.241-2.654H90.889l-2.652 2.654h-9.412z" opacity=".3" style="fill:var(--color1, #fff)"/><path fill="#1497fb" d="M95.96 15.444h5.55l-.485-5.306-5.065 5.306z" style="fill:var(--color2, #1497fb)"/><path fill="#fff" d="m113.333 23.406 7.963-20.027h11.341l5.309 10.86 4.343-10.86h8.685l-7.962 20.027h-10.374L126.845 11.1l-4.824 12.306h-8.686zm39.331-20.027-2.171 5.308h8.685l-5.79 14.719h8.928l5.791-14.719h8.687l2.171-5.308h-26.301zM31.777 16.409c-1.882-1.337-7.16-3.977-14.236.965 1.046-1.926 6.02-7.43 14.236-4.102.155.895.078 2.329 0 3.137z" opacity=".3" style="fill:var(--color1, #fff)"/><path fill="#fff" d="M31.053 10.859c-10.166-4.924-16.237 2.556-19.545 6.032-3.479 3.31-9.523 2.298-10.376 1.93-.205-1.144-.326-2.244-.241-3.378C.807 6.879 7.754-.068 16.332 0a15.187 15.187 0 0 1 14.721 10.858zm.482 7.721c-6.316-4.339-10.766-.342-12.306 1.689-6.075 5.811-15.982 1.677-17.373.963 2.429 5.753 7.983 9.73 14.478 9.652 7.5.08 13.766-5.258 15.201-12.304zm138.793 5.63c2.102 0 3.801-1.711 3.801-3.82 0-2.091-1.699-3.8-3.801-3.8-2.111 0-3.821 1.709-3.821 3.8a3.82 3.82 0 0 0 3.821 3.82zm0-.502c-1.859 0-3.217-1.45-3.217-3.318 0-1.85 1.358-3.298 3.217-3.298 1.85 0 3.198 1.448 3.198 3.298.002 1.868-1.345 3.318-3.198 3.318zm.614-3.149c.754-.02 1.337-.332 1.337-1.166 0-.704-.382-1.126-1.509-1.126h-1.859v4.251h.522v-1.961h.955l1.217 1.961h.623l-1.287-1.959zm-1.509-.412v-1.508h1.217c.522 0 1.065.08 1.065.744 0 .865-.885.764-1.488.764h-.794z" opacity=".3" style="fill:var(--color1, #fff)"/></symbol>

<symbol id="icon-Group-3" viewBox="0 0 136 32"><path fill="#fff" d="m130.2 2.283 5.706.031-11.475 15.548c-.281.379-.709.789-.925 1.296-.549 1.275-1.111 4.072-1.111 4.072l-5.222.026s.813-2.915.779-4.468c-.03-1.356-.722-2.711-1.111-4.072-.392-1.377-.926-4.072-.926-4.072h5.368l.741 2.962 8.175-11.322z" opacity=".3" style="fill:var(--color1, #fff)"/><path fill="#fff" d="M119.395 5.314c1.053.635 1.699 4.137 1.699 4.137s-5.511.081-8.509.081h-2.591l-3.147 13.697h-4.812s2.995-14.885 3.702-17.584c.229-.874 1.57-.724 3.833-.724h3.615c2.334 0 5.063-.298 6.21.392zm-22.404 6.671s.15-.879-.509-1.897c-.563-.868-1.083-1.07-2.564-1.116-4.181-.131-4.1 2.967-4.1 2.967l7.172.046zm4.535-3.548c.613 2.21-.555 7.404-.555 7.404s-6.099-.102-9.44 0c-1.039.032-2.282-.113-2.591.37-.435.677.159 1.72.662 2.16.579.507 1.708.565 2.114.616 2.711.344 8.386.089 8.386.089l-.983 4.353s-8.02.402-12.031-.555c-.792-.189-1.534-.57-2.036-1.11-.137-.148-.256-.349-.385-.524-.103-.139-.405-.596-.54-.957-.916-2.441.107-7.118 1.111-9.625.116-.29.263-.659.417-.972.192-.39.355-.831.509-1.064.103-.161.232-.265.339-.416.124-.18.268-.354.401-.509.37-.429.79-.733 1.296-1.11 1.671-1.252 4.696-2.223 8.329-1.851 1.368.141 3.434.629 4.442 2.036.27.376.404 1.122.555 1.666zM79.454 4.905l4.666-.027s-2.601 12.336-3.926 18.352h-5.368c-3.751 0-7.092.465-8.514-2.221-1.379-2.608-.063-6.896.555-9.81.437-2.062 1.357-6.276 1.357-6.276l4.835-.044s-1.366 6.561-1.935 9.838c-.204 1.174-.623 2.279-.185 3.146.416.826 1 .885 2.776.926.563.013 2.406 0 2.406 0l3.332-13.882zM57.613 13.79c.489-1.736 1.201-3.618 1.111-5.183-.098-1.673-1.501-3.196-2.406-3.517-2.726-.963-5.279.383-6.293 1.481-1.312 1.422-1.757 3.082-2.221 5.368-.346 1.697-.629 3.489 0 4.812 1.114 2.34 4.588 1.829 8.329 1.851.555-1.488 1.014-3.16 1.481-4.813zm6.478-6.849c.533 3.876-1.512 8.153-2.921 11.874 1.436.13 2.695-.02 2.786.087.094.139-.963 4.44-1.331 4.452-1.14.03-4.918.061-6.493.061-5.14 0-9.949.335-12.401-2.221-.996-1.038-1.684-2.819-1.851-4.072-.278-2.091.07-4.394.555-6.293.439-1.714 1.001-3.332 1.851-4.813 2.16-3.77 5.917-6.569 12.216-5.923 1.222.126 2.976.661 4.072 1.296.076.044.341.255.401.292 1.481.942 2.83 3.191 3.115 5.26zM41.349 4.927c-.311 1.416-.622 3.021-.95 4.42h-5.182c.401-1.551.709-3.093 1.111-4.442 1.658 0 3.2.022 5.022.022zm-6.317 5.716h4.998c-.654 3.617-1.947 9.451-2.962 13.512-.635 2.541-1.059 4.396-2.776 5.738-.154.12-.242.063-.37.185-.316.302-1.781.652-2.591.74-1.318.143-2.808.019-4.428-.015.424-1.549.903-3.409 1.281-4.798 3.948.478 4.048-3.254 4.812-6.848.442-2.077 1.782-7.681 2.036-8.514zM23.371 20.083l-.107.278c-1.825 3.554-5.059 5.734-9.671 5.83-2.156.044-4.211-.509-5.553-1.11-2.896-1.301-5.333-3.715-6.663-6.293C-.532 15.092-.876 9.95 3.093 6.109c.061 0-.481.833-.42.833l-.109.355c-2.86 8.953 5.951 16.625 14.515 15.748 2.058-.211 4.683-1.338 6.293-2.961z" opacity=".3" style="fill:var(--color1, #fff)"/><path fill="#fff" d="M18.188 16.381c2.155.015 4.405-.992 5.738-2.406-1.166 2.96-4.542 4.862-9.069 4.257-3.791-.507-7.402-4.322-7.774-8.144-.272-2.782.697-4.442 2.295-6.456-.555 1.053-.763 1.866-.814 2.384-.607 6.017 4.807 10.334 9.625 10.365z" opacity=".3" style="fill:var(--color1, #fff)"/><path fill="#fff" d="M23.71 8.907c-.335.768-2.263 2.219-3.115 2.401-3.372.718-5.532-.881-6.664-2.7-.168-.272-.479-1.014-.535-1.203-.439-1.492-.237-3.748 1.072-4.916-.394 1.111-.452 2.401-.244 3.239.126.507.509 1.392.892 1.949.697 1.014 1.14 1.261 2.036 1.799.404.242.837.437 1.024.49.85.25 2.643.909 5.535-1.059z" opacity=".3" style="fill:var(--color1, #fff)"/>

</symbol>
<symbol id="icon-Group-4" viewBox="0 0 53 32"><path fill="#59b6fb" d="M9.303 0v7.216H1.056v17.45h13.401V0H9.303zm0 20.616H6.211v-9.204h3.092v9.204zM21.673 7.216h-5.154V24.74h5.154V7.216zM21.673 0h-5.154v5.154h5.154V0zM23.735 7.216v17.45h8.247v2.062h-8.247v4.197h13.401V7.216H23.735zm8.246 13.401h-3.093v-9.204h3.093v9.204zM39.197 7.216v17.45h8.247v2.062h-8.247v4.197h13.401V7.216H39.197zm8.247 13.401h-3.092v-9.204h3.092v9.204z" style="fill:var(--color3, #59b6fb)"/></symbol>
<symbol id="icon-LOGO-2" viewBox="0 0 241 32"><path fill="#fff" d="m151.575 6.967-1.833 6.603 7.863.005.2-.66c1.555-5.729-2.789-6.901-4.539-6.901h-6.16c-2.984 0-6.712.358-8.008 4.981-1.103 4.036-1.751 5.828-.229 7.846.926 1.224 3.178 1.563 6.289 2.213 2.335.521 1.947 1.953 1.558 3.452-.326 1.106-1.005 1.758-2.11 1.758-.712 0-1.554-.489-1.231-1.628l.637-2.468-7.997-.005-.649 2.408c-.974 3.19.973 6.313 5.251 6.313h4.41c5.705 0 8.522-1.485 10.15-6.932.582-1.953 1.194-4.226.291-5.826-1.231-2.182-6.395-2.865-8.105-3.32-1.101-.294-.798-1.427-.569-2.538.499-1.82.926-2.281 1.566-2.842l2.613-2.585c.249-.176.663-.158.602.126zM28.672 15.138c2.445.845 5.753 2.866 4.188 8.187-1.685 5.729-5.318 7.56-11.284 7.56H.113l20.038-18.887-3.632 13.282h1.945c1.427 0 2.335-.913 2.724-2.084L27.673.019c4.669 0 9.843.538 8.82 7.291-.859 5.671-4.625 6.996-7.774 7.591-.203.026-.203.221-.046.238zM27.335 0 5.612 20.314 11.287 0h16.048zM56.523 30.883l6.874-24.868h8.04l-6.874 24.868h-8.04zm106.943-17.442 3.107-2.478h-7.261l1.363-4.949h16.533l-1.424 4.949h-4.346l-5.511 19.92h-8.041l4.048-14.647c.295-1.171.658-2.107 1.531-2.794zm48.723-6.474-6.61 23.916h8.039l5.189-18.878c1.037-4.036-.907-5.991-3.762-5.991h-13.746l-6.873 24.869h8.041l5.107-18.622c.566-1.859.989-2.34 1.562-2.87l2.496-2.572c.202-.119.651-.202.558.148zm-85.748 10.666 1.631-.961c.382-.273 1.515-.858 3.008-.892h3.697l-1.362 4.818h-8.237l-1.037 3.647c-.261.976.455 1.692 1.232 1.692h6.613l-1.362 4.947h-9.337c-4.28 0-6.031-3.71-5.253-6.313l3.696-13.607c1.168-4.558 5.058-4.949 8.04-4.949h9.727l-1.362 4.949h-6.677c-1.234 0-1.881.846-2.011 1.366l-1.415 4.942c-.11.266-.08.616.409.361zM109.783 6.967l-1.948 7.008 8.062-.013.375-1.37c1.557-5.729-3.111-6.576-4.863-6.576h-6.096c-2.983 0-6.874.392-8.04 4.949l-3.696 13.607c-.972 3.19.972 6.313 5.252 6.313h12.386l3.728-13.466h-8.044l-2.364 8.52h-1.685c-.713 0-1.492-.718-1.102-1.758l3.232-11.917c.236-.746.648-2.124 1.561-2.835l2.62-2.572c.14-.157.715-.239.621.11zm-58.235.006L44.92 30.884h8.106s1.211-4.628 2.139-7.745c.844-2.832-2.301-4.427-2.69-4.427-.39 0-.39-.587 0-.587 2.204-.066 4.41-.456 5.803-5.599 1.64-6.05-3.677-6.511-5.641-6.511H40.446l-6.938 24.869h8.106l5.134-18.615c.401-1.461.994-2.412 1.595-2.852l2.635-2.562c.135-.157.65-.196.57.117zm177.757 10.66 1.631-.961c.382-.273 1.519-.858 3.008-.892h3.697l-1.362 4.818h-8.234l-1.039 3.647c-.258.976.455 1.692 1.231 1.692h6.614l-1.362 4.947h-9.336c-4.281 0-6.032-3.71-5.255-6.313l3.697-13.607c1.166-4.558 5.058-4.949 8.041-4.949h9.727l-1.362 4.949h-6.679c-1.232 0-1.882.846-2.009 1.366l-1.415 4.942c-.11.266-.081.616.408.361zM87.444 6.015H75.707L68.77 30.884h11.412c5.706 0 8.559-1.952 9.532-5.598l3.435-12.369c1.558-5.73-3.955-6.902-5.706-6.902zm-.643.946-4.664 16.626c-.842 2.734-2.916 2.345-3.89 2.345l3.746-13.678c.439-1.404.955-2.34 1.582-2.847l2.604-2.559c.206-.189.778-.205.621.113zm103.432-.946h-4.993c-2.983 0-6.873.392-8.039 4.949l-3.697 13.607c-.974 3.19.973 6.313 5.251 6.313h4.216c5.706 0 8.558-1.952 9.531-5.598l3.437-12.369c1.558-5.73-3.955-6.902-5.706-6.902zm-.707.939-4.863 17.612c-.323 1.106-1.232 1.69-1.946 1.69-.713 0-1.555-.519-1.167-1.563l3.363-12.436c.542-1.793 1.014-2.374 1.555-2.873l2.495-2.572c.174-.153.629-.119.562.141z" opacity=".3" style="fill:var(--color1, #fff)"/></symbol>
<symbol id="icon-LOGO-3" viewBox="0 0 200 32"><path fill="#fff" d="m188.302.002-3.892 11.849h-20.8L167.502.002H156.42l-10.088 30.717h11.054l3.892-11.849h20.8l-3.892 11.849h11.082L199.356.002h-11.054zM144.371 14.182a5.138 5.138 0 0 0-1.932-1.733 6.464 6.464 0 0 0-2.728-.597h-24.296l1.364-4.262h31.883L151.19.003h-35.349c-1.08 0-2.131.199-3.126.597a9.71 9.71 0 0 0-3.069 1.762c-.796.767-1.762 1.563-2.359 2.529a12.751 12.751 0 0 0-1.733 3.097l-.966 2.898c-.256 1.023-.369 2.074-.398 3.126.171.966.398 1.932.796 2.529.483.739 1.165 1.336 1.932 1.762.824.455 1.762.71 2.728.767h24.295l-1.363 4.092h-31.911l-2.5 7.587h35.349c1.08 0 2.131-.199 3.126-.597a10.233 10.233 0 0 0 3.069-1.733c.795-.767 1.761-1.563 2.358-2.529a11.854 11.854 0 0 0 1.733-3.097l.966-2.898a9.046 9.046 0 0 0 .398-3.126c-.198-1.023-.398-1.961-.796-2.586zM100.867 4.691c-.171-.966-.398-1.733-.938-2.358A4.143 4.143 0 0 0 98.167.6c-.852-.398-1.79-.625-2.728-.597H67.677c-1.08 0-2.131.199-3.126.597a9.844 9.844 0 0 0-3.097 1.762c-.796.767-1.733 1.563-2.359 2.529a11.854 11.854 0 0 0-1.733 3.097l-7.388 22.733h11.082l7.587-23.102h20.971l-2.302 6.791H72.536l-2.33 7.189h14.748l-2.927 9.15h10.912l7.559-22.96a8.816 8.816 0 0 0 .369-3.097zM52.504 4.89a5.714 5.714 0 0 0-.767-2.529A3.603 3.603 0 0 0 49.805.628a5.714 5.714 0 0 0-2.728-.597H11.728L9.199 7.618h32.024l-5.058 15.515H4.14L1.611 30.72H37.13a9.666 9.666 0 0 0 3.097-.597c.995-.568 2.131-1.137 3.097-1.932a15.204 15.204 0 0 0 2.529-2.529 17.134 17.134 0 0 0 1.563-2.927l4.689-14.748a5.512 5.512 0 0 0 .398-3.097z" opacity=".3" style="fill:var(--color1, #fff)"/><path fill="#fff" d="M21.815 11.852H2.975L.446 18.871h19.038l2.33-7.019z" opacity=".3" style="fill:var(--color1, #fff)"/></symbol>
<symbol id="icon-LOGO-4" viewBox="0 0 186 32"><path fill="#fff" d="M51.646 6.863H35.631l-1.029 2.402h2.745L33 18.874h-2.745l-1.144 2.517h18.074c4.461 0 6.635-2.974 8.35-6.978 1.716-3.546 2.974-7.55-3.889-7.55zm-3.432 7.55c-.915 2.174-1.83 4.461-4.004 4.461h-3.546l4.232-9.609h2.517c2.86.343 1.487 3.432.801 5.148zm12.468-7.55h12.926l-1.144 2.402h-2.745l-3.088 7.207c-1.144 3.088 5.376 4.004 7.092 0l3.089-7.207h-2.517l1.144-2.402h8.236l-1.144 2.402h-2.517l-3.203 7.207c-2.402 4.69-4.232 4.919-11.21 5.033-8.007.114-7.55-1.945-6.292-5.033l3.203-7.207h-2.86l1.029-2.402zM85.62 9.266h2.745l-4.118 9.609h-2.86l-1.029 2.517h8.35l1.258-2.517h-2.745l3.089-6.863 4.919 9.38h6.063l5.376-12.125h2.517l1.029-2.402h-8.35l-1.029 2.402h2.745l-3.203 7.092-4.919-9.494h-8.694L85.62 9.267zm26.767 0h2.746l-4.118 9.609h-2.745l-1.03 2.517h19.104l2.859-6.749h-2.174l-3.889 4.232h-4.69l4.119-9.609h2.517L126 6.864h-12.582l-1.029 2.402zm33.746-2.517c-9.952 0-11.554 1.258-13.957 6.863-2.745 6.063-2.859 8.007 8.122 8.007 9.952 0 11.782-3.203 13.727-8.007 2.631-6.063 1.373-6.863-7.893-6.863zm1.258 5.491-2.059 4.804c-.801 1.716-2.517 2.174-3.432 2.174h-1.487c-.915 0-3.318-.229-2.174-3.203l2.059-4.69c1.03-1.83 2.517-2.173 3.432-2.173h1.715c.915 0 2.974.801 1.945 3.089zm30.77-5.377h-18.302l-1.144 2.631h2.745l-4.118 9.38h-2.632l-1.029 2.517h12.353l1.144-2.517h-2.402l1.374-3.317h6.863c5.949 0 6.063-1.601 7.55-4.461.573-1.945 2.402-4.232-2.402-4.232zm-5.147 4.462c-.457.915-.457 1.716-2.517 1.716h-3.203l1.488-3.546h2.974c2.288 0 1.373 1.373 1.258 1.83zM10.465 6.177 2.458 0l25.28 14.184-25.28 14.871 8.465-6.863c-.458.114-1.03.114-1.487.114-4.919 0-8.808-3.66-8.808-8.122s4.004-8.122 8.808-8.122c.229.114.686.114 1.03.114zm-.114 16.015c4.576 0 8.236-3.546 8.236-7.893s-3.661-7.893-8.236-7.893c-4.576 0-8.236 3.546-8.236 7.893.114 4.347 3.775 7.893 8.236 7.893z" opacity=".3" style="fill:var(--color1, #fff)"/><path fill="#fff" d="m3.945 17.273.458-1.029H5.89l1.83-3.775H6.004l.458-1.03h7.55c2.745 0 3.66 1.601 3.432 3.088-.114 1.144-.801 2.745-4.347 2.745H3.946zm7.207-1.03c1.373 0 2.288-.915 2.631-1.83.229-.686.229-1.945-1.258-2.059h-1.03l-1.83 3.889h1.487zm95.058 12.926c0 .114 0 .114 0 0-.229.572.114.572.915.572h3.317c.572 0 .915-.114 1.029-.458s-.229-.457-1.029-.457l-4.118-.114c-1.945 0-2.517-.343-1.945-1.487.229-.572.572-.915 1.144-1.144.801-.343 1.716-.343 3.089-.343h4.004c1.944 0 2.631.343 2.173 1.373 0 .114-.114.229-.114.229h-2.516c.114-.343-.114-.458-.686-.458h-2.974c-.801 0-1.258 0-1.373.458-.114.343.114.343.801.458l4.232.114c1.945 0 2.402.458 1.945 1.602-.343.686-.686 1.029-1.602 1.258-.458.114-1.373.114-2.631.114h-3.432c-2.631 0-3.432-.229-2.974-1.373 0 0 .114-.229.229-.343h2.517zm17.272-2.059c.687 0 .801.229.687.572-.229.457-.571.686-1.258.686h-3.889l.571-1.258h3.889zm.687-1.258h-6.52l-2.288 5.033h2.631l.573-1.258h4.918c1.945 0 2.746-.572 3.432-1.83.343-.915.343-1.373-.457-1.716-.573-.229-1.258-.229-2.288-.229zm8.237 3.775c-1.602 0-2.174-.114-1.831-.915l.343-.686c.344-.801 1.03-1.029 2.746-1.029h1.715c1.601 0 2.174.114 1.83.915l-.343.686c-.343.801-1.03.915-2.745.915h-1.715v.114zm-1.259 1.258h3.088c1.601 0 2.631 0 3.432-.343.8-.343 1.258-.801 1.601-1.487l.687-1.373c.343-.801.229-1.258-.23-1.487-.571-.343-1.601-.343-3.202-.343h-3.089c-1.601 0-2.631 0-3.431.343-.801.343-1.258.801-1.602 1.602l-.571 1.373c-.343.686-.343 1.144.229 1.487.573.229 1.601.229 3.089.229zm17.731-3.775c.686 0 .8.229.686.572-.229.457-.457.686-1.258.686h-4.118l.571-1.258h4.119zm.685-1.258H142.7l-2.288 5.033h2.631l.573-1.258h3.889c.8 0 1.144.114.914.572l-.343.686h2.631l.458-1.029c.229-.458-.115-.801-.915-.915 1.144-.114 1.715-.572 2.058-1.373.573-1.373-.229-1.716-2.745-1.716zm6.178 5.033 1.717-3.775h-3.546l.571-1.258h9.723l-.571 1.258h-3.546l-1.717 3.775h-2.631zM184.11 6.863v.229h-.573v1.487h-.229V7.092h-.457v-.229h1.258zm1.601 1.716-.114-1.03v-.458c0 .114-.114.343-.114.458l-.343.915h-.229l-.344-1.03c0-.114-.114-.343-.114-.458v.458l-.114 1.03h-.229l.114-1.716h.343l.344.915c0 .114.114.229.114.458 0-.114.114-.343.114-.458l.343-.915h.343l.114 1.716h-.229v.114z" opacity=".3" style="fill:var(--color1, #fff)"/></symbol></defs></svg>