<svg xmlns="http://www.w3.org/2000/svg" aria-hidden="true" style="position:absolute;width:0;height:0;overflow:hidden"><defs>
    <symbol id="icon-menu" viewBox="0 0 32 32">
      <path d="M5.334 23.027v-1.333h21.333v1.333H5.334zm0-6.36v-1.333h21.333v1.333H5.334zm0-6.36V8.974h21.333v1.333H5.334z"/>
    </symbol>
<symbol id="icon-Vector" viewBox="0 0 29 32"><path fill="none" stroke="#fff" stroke-linecap="round" stroke-linejoin="round" stroke-width="2.365" d="M27.025 12.447V7.709c0-1.744-1.434-3.159-3.204-3.159H4.596c-1.77 0-3.204 1.414-3.204 3.159v18.952c0 1.744 1.435 3.159 3.204 3.159h4.806m9.613-28.429v6.317M9.402 1.391v6.317m-8.011 6.318h8.011m11.215 6.633v2.665l1.442 1.599m5.767-1.421c0 3.925-3.228 7.107-7.209 7.107s-7.21-3.182-7.21-7.107c0-3.925 3.228-7.107 7.21-7.107s7.209 3.182 7.209 7.107z" style="stroke:var(--color1, #fff)"/></symbol>
<symbol id="icon-floor" viewBox="0 0 32 32"><path fill="#1195ff" d="M17.074 0c.006.104.016.207.016.31V11.901h-2.165c-.01-.077-.029-.155-.029-.234V.154c0-.051.01-.103.016-.154h2.162zM19.301 14.311c2.643.414 5.134 1.099 7.254 2.715.488.372.935.824 1.305 1.309 1.098 1.44 1.08 3.084-.003 4.538-.876 1.175-2.082 1.94-3.4 2.543-2.068.947-4.262 1.41-6.525 1.587-2.532.199-5.035.034-7.5-.583-1.756-.44-3.44-1.06-4.876-2.172a7.743 7.743 0 0 1-1.535-1.56c-.989-1.372-.931-2.928.061-4.304.689-.955 1.617-1.635 2.641-2.204 1.599-.891 4.071-1.658 5.964-1.844V18.258c0 .819.419 1.238 1.241 1.239 1.377.002 2.753.002 4.131 0 .822-.001 1.24-.42 1.241-1.239V14.313zM4.414 20.6c.018.161.024.285.046.406.149.795.615 1.403 1.201 1.935.9.817 1.96 1.381 3.097 1.796 4.158 1.517 8.39 1.642 12.669.577 1.652-.411 3.216-1.035 4.567-2.091.611-.478 1.137-1.035 1.405-1.775.096-.264.129-.548.195-.839h-1.071c-.106.273-.147.557-.304.746-.365.439-.743.889-1.195 1.23-1.149.867-2.491 1.355-3.882 1.71-2.689.686-5.415.788-8.159.42-1.803-.242-3.551-.692-5.149-1.577-1.06-.587-2.068-1.245-2.357-2.538l-1.064-.001z" style="fill:var(--color2, #1195ff)"/><path fill="#1195ff" d="M13.811 13.013h4.371v5.384h-4.371v-5.384zM2.228 7.58c.313 0 .608-.012.902.008.07.005.178.103.192.173.255 1.256.896 1.857 2.17 2.002v1.051c-1.303.15-2.043.857-2.195 2.162H2.29c-.133-.373-.214-.742-.392-1.061-.345-.621-.906-.975-1.627-1.053-.195-.021-.281-.077-.269-.282.017-.268.004-.537.004-.802 1.477-.149 2.144-1.11 2.222-2.197l.001.001zM27.596 5.955c.304 0 .609-.012.912.009.064.004.16.117.174.193.225 1.206.921 1.853 2.191 1.979v1.046c-1.328.153-2.076.868-2.222 2.175h-1.056c-.041-.21-.058-.418-.125-.609-.3-.863-.903-1.388-1.832-1.512-.208-.028-.297-.087-.282-.305.018-.257.004-.516.004-.782 1.34-.15 2.076-.873 2.235-2.195h.001zM19.314 3.772V2.727c1.318-.139 2.049-.858 2.213-2.158h1.056c.156 1.272.876 2.013 2.216 2.159v1.041c-1.31.141-2.054.86-2.213 2.168h-1.055c-.16-1.279-.872-2.015-2.217-2.164v-.001zM11.587 5.394c-1.253.113-2.084.849-2.238 2.168H8.302c-.165-1.271-.869-2.014-2.207-2.161V4.355c1.304-.146 2.041-.857 2.197-2.16h1.069c.092.975.564 1.668 1.505 2.016.117.044.247.096.366.089.335-.021.38.152.357.421-.02.224-.004.451-.004.672zM10.463 27.595l3.326.514c-.123.486-.241.987-.381 1.481a6.714 6.714 0 0 1-.296.822c-.293.679-1.001 1.039-1.737.885-.597-.125-1.162-.341-1.4-.947-.113-.286-.177-.645-.109-.936.147-.622.395-1.221.597-1.819v.001zM18.162 28.117l3.374-.52c.199.639.414 1.288.595 1.946.046.169.004.375-.039.553-.17.697-.844 1.178-1.693 1.225a1.53 1.53 0 0 1-1.535-1.034c-.248-.713-.465-1.437-.701-2.17zM17.076 28.162c.19.762.397 1.503.549 2.255.046.227-.012.505-.107.724-.367.853-1.252.993-2.205.758-.736-.181-1.099-.924-.911-1.715.127-.536.258-1.07.404-1.601.141-.512.014-.425.577-.422.549.003 1.098 0 1.692 0l.001.001zM22.567 27.333c.863-.345 1.682-.675 2.503-.997a.28.28 0 0 1 .201.011c1.1.558 1.199 1.849.202 2.576-.326.238-.653.459-1.085.456-.571-.004-1.01-.242-1.264-.737-.217-.423-.376-.875-.558-1.307v-.001zM9.419 27.33c-.177.422-.338.85-.533 1.262-.272.572-.843.883-1.486.761-.791-.149-1.862-.976-1.523-2.034.144-.448.485-.717.844-.976.041-.03.116-.019.174-.021.019 0 .038.018.057.026l2.467.982zM2.319 19.682c-.225.99-.073 1.897.318 2.833-.432.08-.829.2-1.231.218a1.333 1.333 0 0 1-1.378-1.2 3.829 3.829 0 0 1 0-.808c.082-.802.844-1.346 1.653-1.193.205.039.407.095.639.149l-.001.001zM29.674 19.713c.847-.355 1.572-.232 2.009.326.428.546.427 1.684-.024 2.197-.583.662-1.226.611-2.285.225.362-.881.518-1.788.3-2.748zM5.668 25.717c-.448.264-.882.562-1.352.785-.497.236-1.019.168-1.424-.199-.556-.504-.773-1.159-.618-1.894.086-.406.363-.701.755-.868.07-.03.22-.009.261.044.648.827 1.45 1.481 2.332 2.047.015.01.02.035.045.085zM26.354 25.725c.626-.533 1.234-1.044 1.834-1.567a1.92 1.92 0 0 0 .391-.449c.168-.282.348-.224.566-.079a1.379 1.379 0 0 1 .589 1.471c-.317 1.614-1.614 1.89-2.631 1.09-.237-.187-.515-.324-.747-.467l-.002.001zM2.763 18.431c-.804-.604-.624-1.588-.093-2.367.365-.537 1.27-.861 2.265-.046-.883.669-1.648 1.439-2.172 2.413zM29.224 18.426c-.524-.962-1.269-1.734-2.149-2.386.589-.647 1.604-.699 2.156-.074.549.621.863 1.856-.007 2.46z" style="fill:var(--color2, #1195ff)"/></symbol><symbol id="icon-home" viewBox="0 0 32 32"><path fill="#1195ff" d="M4.559 32c-.551-.214-.737-.625-.735-1.2.013-3.185.009-6.37.001-9.556 0-.256.052-.394.308-.519.31-.152.593-.386.84-.633 3.577-3.564 7.146-7.135 10.716-10.707.087-.088.156-.195.215-.269l10.269 10.266c-.787.621-1.007 1.629-1.492 2.48-.103.18-.25.354-.415.479-.373.282-.771.531-1.156.797-1.636 1.13-1.645 3.397-.017 4.539.025.017.05.038.078.051 1.046.522 1.712 1.355 2.108 2.45.3.83.881 1.425 1.739 1.717.043.015.072.068.107.104h-7.5c-.005-.104-.015-.207-.015-.311 0-2.417.008-4.832-.003-7.249-.011-2.436-2.096-4.179-4.471-3.753-1.759.315-3.028 1.872-3.035 3.754-.01 2.417-.003 4.832-.001 7.249 0 .103.017.207.025.31L4.561 32z" style="fill:var(--color2, #1195ff)"/><path fill="#1195ff" d="M31.999 16.065c-.113.147-.211.307-.339.437-.776.785-1.558 1.564-2.34 2.344-.377.376-.566.377-.94.003-4.044-4.042-8.087-8.084-12.129-12.128-.087-.087-.15-.202-.274-.373-.132.176-.196.286-.284.374-4.012 4.015-8.027 8.027-12.041 12.04-.449.448-.604.447-1.053 0L.257 16.42c-.345-.345-.346-.549-.001-.894 1.052-1.054 2.106-2.107 3.159-3.159.065-.065.135-.125.203-.188.209.192.391.392.605.552a2.804 2.804 0 0 0 4.191-.965c.316-.61.586-1.241.902-1.851.095-.183.249-.354.415-.478.443-.329.909-.625 1.361-.94 1.437-1.003 1.696-2.804.604-4.18a5.576 5.576 0 0 1-.09-.119c.069-.075.134-.151.205-.223 1.229-1.231 2.459-2.46 3.69-3.69.378-.378.562-.379.939-.003 5.083 5.08 10.165 10.159 15.245 15.242.121.122.21.278.314.417v.125h-.001zM31.999 25.626c-.218.226-.431.458-.658.675a1.525 1.525 0 0 1-.359.246c-.953.484-1.58 1.238-1.925 2.247-.104.303-.274.582-.415.871-.156.32-.419.494-.77.493-.351 0-.612-.177-.767-.498-.316-.655-.619-1.316-.953-1.962a1.422 1.422 0 0 0-.415-.478c-.494-.363-1.011-.696-1.516-1.044-.625-.431-.622-1.09.003-1.526.153-.107.299-.23.465-.313 1.018-.509 1.673-1.32 2.043-2.386.095-.273.244-.528.374-.788.157-.315.409-.491.769-.491s.613.177.767.494c.323.663.633 1.333.966 1.991.08.158.209.31.352.413.479.349.989.656 1.457 1.018.228.177.389.439.581.662v.375l.001.001zM13.936 32c.014-.133.038-.266.038-.399.002-2.373-.001-4.746.003-7.118.002-.939.507-1.66 1.32-1.906 1.108-.337 2.282.381 2.39 1.536.075.792.015 1.597.015 2.449-.266 0-.541-.002-.817 0-.612.005-1.025.38-1.028.932-.003.553.412.938 1.018.944.27.003.54 0 .875 0V32h-3.813z" style="fill:var(--color2, #1195ff)"/><path fill="#1195ff" d="M10.496 6.133a.977.977 0 0 1-.451.805c-.619.421-1.241.84-1.851 1.274a1.112 1.112 0 0 0-.33.391 81.097 81.097 0 0 0-1.044 2.162c-.184.395-.462.65-.905.652-.443.003-.726-.252-.91-.645-.344-.734-.694-1.465-1.055-2.191a1.015 1.015 0 0 0-.313-.369c-.594-.421-1.201-.824-1.801-1.237-.688-.475-.685-1.205.008-1.682.531-.366 1.057-.74 1.599-1.09a1.58 1.58 0 0 0 .617-.711c.301-.674.634-1.333.949-2 .184-.39.464-.64.915-.634.435.006.707.246.886.628.346.734.694 1.465 1.057 2.19.075.149.198.292.334.388.602.429 1.215.84 1.826 1.256a.998.998 0 0 1 .468.811v.002zM21.338 2.428c.113-.007.225-.019.338-.019 1.124-.001 2.249-.003 3.373 0 .771.002 1.127.361 1.128 1.128V7.17L21.409 2.4l-.072.029h.001z" style="fill:var(--color2, #1195ff)"/></symbol>
<symbol id="icon-office" viewBox="0 0 32 32"><path fill="#1195ff" d="M10.965 11.943h-5.26c-.523 0-1.048.007-1.571-.005-.379-.009-.651-.23-.662-.605-.027-.789-.009-1.58-.009-2.393h17.96c0 .823.025 1.635-.011 2.444-.017.379-.317.558-.771.558-1.993.002-3.986 0-5.979 0h-.709c.041.109.063.183.096.252.42.878.835 1.758 1.271 2.63.053.106.207.227.315.228 3.064.011 6.127.007 9.191.005.033 0 .065-.015.058-.014l-.748-3.098c-.049-.2-.105-.4-.137-.603-.053-.331.09-.527.415-.528 1.754-.008 3.507-.009 5.261 0 .356.002.481.226.385.637-.233.994-.468 1.986-.708 2.978-.048.196-.119.388-.187.607.08.008.174.022.269.022.626.002 1.253 0 1.879.001.586 0 .68.094.68.672v7.547c0 2.768-.004 5.537.006 8.306.001.305-.064.432-.394.413A16.523 16.523 0 0 0 30 31.996c-.311.014-.409-.078-.407-.403.013-2.573.007-5.147.007-7.72v-5.516h-6.375c-.519-1.556-1.396-2.285-2.671-2.252-1.254.033-2.104.777-2.533 2.241H2.393V31.536c0 .302-.149.453-.447.454-.535 0-1.071-.01-1.606.004-.24.011-.342-.048-.342-.318.006-5.365.004-10.73.006-16.095 0-.395.143-.518.591-.518 1.652-.002 3.303 0 4.954-.001 1.195 0 2.392-.009 3.587.006.257.003.381-.085.487-.314.426-.923.872-1.836 1.339-2.812v-.001zm16.091 1.847a.86.86 0 0 0 .831-.865.86.86 0 0 0-.847-.85.866.866 0 0 0-.85.883.862.862 0 0 0 .866.832zm-14.605-2.821a.54.54 0 0 0 .533-.547.552.552 0 0 0-.561-.524.545.545 0 0 0-.515.533.533.533 0 0 0 .541.536l.001.001zM21.447 8.142H3.448V.936C3.449.205 3.656 0 4.389 0h16.126c.725 0 .932.209.932.947v7.196z" style="fill:var(--color2, #1195ff)"/><path fill="#1195ff" d="M22.84 31.983h-1.852v-1.656c0-.115-.002-.229 0-.345.003-.258-.113-.437-.372-.439s-.379.173-.379.433v2.003h-1.851v-.362c0-.873.003-1.745-.002-2.618-.002-.32-.163-.496-.414-.465-.275.034-.337.227-.335.471.003.861.001 1.722.001 2.584v.406h-1.459c-.706 0-1.412.009-2.117-.006-.151-.003-.299-.091-.448-.139.071-.133.12-.286.218-.393.246-.271.51-.525.774-.777.743-.712 1.104-1.582 1.087-2.616-.009-.548-.001-1.098-.001-1.671h9.833c.005.125.014.257.018.389.02.687-.009 1.381.071 2.062.082.704.459 1.286.961 1.781.317.313.638.623.943.949.065.07.092.204.082.302-.005.047-.14.113-.217.115-1.25.008-2.499.005-3.788.005v-.398c0-1.355-.001-2.71.001-4.065 0-.22-.018-.422-.262-.5-.278-.089-.487.114-.488.481-.003 1.355-.001 2.71-.001 4.065v.406l-.002-.001zM15.698 25.58c0-.629-.028-1.225.007-1.818.035-.589.498-.987 1.106-.998.635-.012 1.27-.002 1.946-.002v-.436c0-1.183-.017-2.366.005-3.549.027-1.449 1.408-2.343 2.654-1.725.727.36 1.049.987 1.052 1.79.003 1.172 0 2.343.001 3.514v.404h1.77c.87.002 1.293.429 1.296 1.313.002.493 0 .984 0 1.507l-9.838.001zm5.563-6.783a.647.647 0 0 0-.631-.667.646.646 0 0 0-.67.661.651.651 0 0 0 1.301.005v.001zM11.613 26.386v3.178H3.168v-3.178h8.445zM7.376 28.35c.49 0 .682-.105.679-.374-.002-.271-.198-.38-.683-.379-.463 0-.649.103-.661.364-.013.275.182.389.663.389h.001zM3.158 25.576v-2.864h8.444v2.864H3.158zm4.36-1.8c-.617 0-.806.103-.807.373 0 .273.197.386.678.386.471 0 .695-.126.661-.399-.051-.408-.373-.361-.533-.359zM3.166 21.908v-2.781h8.43v2.781h-8.43zm4.213-1.01c.484 0 .674-.104.677-.371.003-.271-.196-.388-.668-.388-.478 0-.673.109-.677.378-.004.27.189.38.667.38h.001zM28.787 10.033h-3.483c0-.889-.061-1.763.017-2.625.078-.865.952-1.506 1.804-1.448.91.062 1.628.76 1.657 1.657.025.799.005 1.599.005 2.415v.001z" style="fill:var(--color2, #1195ff)"/></symbol>
<symbol id="icon-window" viewBox="0 0 32 32"><path fill="#1195ff" d="M24.437 0c-.01.123-.029.247-.029.37-.002 1.728-.001 3.456-.001 5.184v.391H8.125V-.001h7l-.255.344 4.303 4.304c.217-.211.462-.447.721-.696-.085-.089-.161-.173-.241-.252-1.146-1.147-2.293-2.294-3.438-3.442C16.136.178 16.071.086 16 0h8.438zM15.49 3.988l-2.108-2.115-.687.655 2.14 2.139.654-.678h.001zM32 13.818c-.205.463-.5.813-1.057.824-.567.011-1.015-.372-1.103-.94-.076-.494.248-1.008.739-1.167a1.082 1.082 0 0 1 1.312.565l.109.22v.499z" style="fill:var(--color2, #1195ff)"/><path fill="#1195ff" d="M25.51 5.967V2.731h5.387v8.623c-1.503.395-2.152 1.067-2.149 2.221.003 1.134.655 1.804 2.153 2.2V30.91H17.918V20.108c.843-.229 1.07-.532 1.07-1.424v-4.036h5.205c.9 0 1.3-.4 1.301-1.293v-.869h1.9c.959 0 1.353-.39 1.353-1.34V7.207c0-.806-.425-1.233-1.233-1.237-.656-.004-1.311 0-2.004 0l.001-.002zm-5.974 15.212c-.007.109-.015.181-.015.253 0 1.866-.001 3.73.001 5.596 0 .145.015.292.041.435.16.855 1.046 1.441 1.898 1.26.815-.174 1.309-.8 1.313-1.697.007-1.344.002-2.688.002-4.032 0-1.824-.001-3.647.001-5.471 0-.45.194-.696.535-.701.348-.005.552.257.554.717.001.448-.004.896.002 1.344.004.333-.023.674.041.995.167.835.921 1.351 1.782 1.262.792-.082 1.415-.764 1.424-1.601.013-1.126.004-2.251.004-3.376v-.405h-1.085v.356c0 1.062.002 2.126-.002 3.188 0 .145 0 .299-.05.43-.096.253-.304.363-.574.33-.272-.033-.459-.259-.463-.579-.009-.729.008-1.459-.009-2.188a1.594 1.594 0 0 0-1.565-1.555c-.96-.024-1.68.696-1.681 1.7-.004 3.137-.001 6.273-.002 9.41 0 .115.007.23-.007.344a.533.533 0 0 1-1.062-.005c-.012-.103-.007-.208-.007-.313V21.178l-1.076-.001zm7.039 1.087c0 .956-.028 1.873.008 2.787a1.594 1.594 0 0 0 1.536 1.524c.949.033 1.697-.654 1.701-1.607.011-2.657.004-5.314.004-7.971 0-.049-.009-.099-.015-.156h-1.062v7.932c0 .461-.201.725-.546.724s-.534-.256-.536-.73c-.002-.438 0-.875 0-1.313v-1.191l-1.089.001zM14.626 30.919H1.672c-.116-.517-.1-.533.339-.756.817-.416 1.257-1.087 1.234-2.007-.023-.907-.492-1.545-1.309-1.928-.094-.044-.193-.077-.298-.118V10.127c.718.237 1.43.244 2.166-.007 0 .42-.003.804 0 1.188.006.729.432 1.163 1.166 1.174.573.009 1.145.002 1.719.002h.368v.905c.002.857.401 1.256 1.266 1.257 1.625.002 3.25 0 4.875 0h.366v4.061c0 .871.227 1.173 1.066 1.404v10.808l-.001-.001zm-2.148-9.739v.41l-.001 5.282c0 .124 0 .252-.026.372-.057.27-.242.414-.511.419s-.459-.136-.524-.402c-.032-.129-.03-.268-.03-.402-.002-3.094 0-6.189-.003-9.283 0-.197 0-.4-.045-.59-.195-.821-.921-1.317-1.777-1.234-.784.076-1.409.767-1.427 1.601-.014.688-.002 1.375-.005 2.063-.002.418-.204.658-.543.655s-.531-.241-.532-.666c-.002-1.104 0-2.208 0-3.314v-.329H5.963v.924c.006 1.01-.032 2.024.031 3.03.064 1.026 1.119 1.676 2.097 1.361.699-.226 1.117-.819 1.128-1.623.01-.698-.004-1.397.011-2.094.007-.327.237-.538.532-.539.29 0 .515.22.543.536.008.093.003.187.003.282 0 3.126.002 6.251-.003 9.378 0 .434.102.824.384 1.158a1.604 1.604 0 0 0 1.781.487 1.608 1.608 0 0 0 1.086-1.528c.008-1.928.003-3.856.002-5.782 0-.05-.01-.101-.017-.171h-1.065l.001.002zm-9.227-4.35v2.74c0 1.792-.006 3.585.003 5.376a1.614 1.614 0 0 0 1.622 1.633c.907.001 1.611-.701 1.627-1.625.006-.355.001-.709.001-1.062v-1.623H5.428v2.419c0 .546-.186.818-.555.812-.359-.006-.538-.268-.538-.797V16.83l-1.083.001z" style="fill:var(--color2, #1195ff)"/><path fill="#1195ff" d="M7.055 11.377H4.898V7.079h22.748v4.293h-2.151v-.916c-.003-.793-.422-1.229-1.207-1.229-5.342-.003-10.686-.002-16.028 0-.79 0-1.202.425-1.205 1.224v.926z" style="fill:var(--color2, #1195ff)"/><path fill="#1195ff" d="M24.387 10.338v3.215h-5.4v-.927c-.005-.799-.44-1.233-1.239-1.234-.989-.002-1.978-.002-2.967 0-.786.001-1.217.432-1.22 1.216v.931h-5.41v-3.201h16.237z" style="fill:var(--color2, #1195ff)"/><path fill="#1195ff" d="M14.662 12.502h3.207v4.302h-3.207v-4.302zM16.787 32h-1.033V20.098h1.033V32zM4.574 6.009c-.673.245-.814.78-.776 1.427.023.404-.009.812.01 1.217.01.211-.059.325-.252.398-.819.311-1.583.216-2.249-.354S.407 7.381.618 6.53c.212-.853.775-1.39 1.627-1.587.947-.22 1.93.236 2.33 1.066h.001zM1.637 3.95V2.731H7.04v3.234c-.393 0-.774.007-1.153-.007-.06-.002-.139-.08-.172-.142-.918-1.709-2.122-2.274-3.987-1.867-.019.004-.041 0-.09 0zM0 28.199a1.083 1.083 0 0 1 1.114-1.065 1.089 1.089 0 0 1 1.057 1.095A1.103 1.103 0 0 1 1.083 29.3 1.09 1.09 0 0 1 0 28.198v.001zM14.658 17.919h3.219v1.056h-3.219v-1.056z" style="fill:var(--color2, #1195ff)"/></symbol>
<symbol id="icon-winner" viewBox="0 0 30 32">
<path fill="#1195ff" style="fill: var(--color1, #1195ff)" d="M23.391 13.824c4.127-1.455 7.086-5.321 7.086-9.851l-0.025-1.107h-6.514v-2.866h-17.398v2.866h-6.514l-0.025 1.107c0 4.53 2.959 8.396 7.086 9.851 0.972 2.396 3.033 4.139 5.572 4.908v2.602c-0.114 2.038-1.878 3.772-3.992 3.772v2.341h-2.129v4.553h17.402v-4.553h-2.129v-2.341c-2.114 0-3.877-1.734-3.991-3.772v-2.602c2.538-0.768 4.6-2.512 5.572-4.908zM23.939 5.073h4.067c-0.008 0.056-0.014 0.132-0.023 0.187-0.402 2.453-1.935 4.511-4.046 5.724 0.005-0.122 0.002-5.912 0.002-5.912zM2.493 5.261c-0.009-0.055-0.015-0.132-0.023-0.187h4.066c0 0-0.003 5.79 0.002 5.912-2.11-1.213-3.643-3.272-4.045-5.724zM15.238 10.638l-2.695 1.759 0.878-3.049-2.544-1.962 3.238-0.126 1.123-2.972 1.123 2.972 3.238 0.126-2.544 1.962 0.878 3.049-2.695-1.759z"></path>
</symbol>
</defs></svg>