<svg aria-hidden="true" style="position: absolute; width: 0; height: 0; overflow: hidden;" version="1.1" xmlns="http://www.w3.org/2000/svg" xmlns:xlink="http://www.w3.org/1999/xlink">
<defs>
<symbol id="icon-Group-2" viewBox="0 0 179 32">
<path fill="#fff" style="fill: var(--color1, #fff)" opacity="0.3" d="M61.214 9.894h10.376c1.060-2.892 0.231-7.868-14.236-7.239-5.516 0.050-17.204 0.955-20.51 11.823-1.066 3.911 1.12 11.377 15.201 9.169 3.414-0.583 10.955-2.996 14.236-0.483l4.585-11.341h-13.995l-1.448 4.102h3.619c-0.794 1.633-3.583 2.538-6.756 2.654-3.012-0.117-5.351-0.945-5.067-3.861 0.32-2.966 3.412-7.339 9.652-7.239 1.83-0.024 3.714 0.579 4.343 2.413zM76.655 3.379h9.412l-7.963 20.027h-9.412l7.963-20.027zM78.826 23.406l19.305-20.027h11.823l1.93 20.027h-9.652l-0.241-2.654h-11.102l-2.652 2.654h-9.412z"></path>
<path fill="#1497fb" style="fill: var(--color2, #1497fb)" d="M95.96 15.444h5.55l-0.485-5.306-5.065 5.306z"></path>
<path fill="#fff" style="fill: var(--color1, #fff)" opacity="0.3" d="M113.333 23.406l7.963-20.027h11.341l5.309 10.86 4.343-10.86h8.685l-7.962 20.027h-10.374l-5.793-12.306-4.824 12.306h-8.686zM152.664 3.379l-2.171 5.308h8.685l-5.79 14.719h8.928l5.791-14.719h8.687l2.171-5.308h-26.301zM31.777 16.409c-1.882-1.337-7.16-3.977-14.236 0.965 1.046-1.926 6.020-7.43 14.236-4.102 0.155 0.895 0.078 2.329 0 3.137z"></path>
<path fill="#fff" style="fill: var(--color1, #fff)" opacity="0.3" d="M31.053 10.859c-10.166-4.924-16.237 2.556-19.545 6.032-3.479 3.31-9.523 2.298-10.376 1.93-0.205-1.144-0.326-2.244-0.241-3.378-0.084-8.564 6.863-15.511 15.441-15.443 3.3-0.036 6.523 1.005 9.179 2.964s4.602 4.73 5.542 7.894zM31.535 18.58c-6.316-4.339-10.766-0.342-12.306 1.689-6.075 5.811-15.982 1.677-17.373 0.963 2.429 5.753 7.983 9.73 14.478 9.652 7.5 0.080 13.766-5.258 15.201-12.304zM170.328 24.21c2.102 0 3.801-1.711 3.801-3.82 0-2.091-1.699-3.8-3.801-3.8-2.111 0-3.821 1.709-3.821 3.8 0 1.013 0.403 1.985 1.12 2.701 0.715 0.716 1.688 1.119 2.701 1.119zM170.328 23.708c-1.859 0-3.217-1.45-3.217-3.318 0-1.85 1.358-3.298 3.217-3.298 1.85 0 3.198 1.448 3.198 3.298 0.002 1.868-1.345 3.318-3.198 3.318zM170.942 20.559c0.754-0.020 1.337-0.332 1.337-1.166 0-0.704-0.382-1.126-1.509-1.126h-1.859v4.251h0.522v-1.961h0.955l1.217 1.961h0.623l-1.287-1.959zM169.433 20.147v-1.508h1.217c0.522 0 1.065 0.080 1.065 0.744 0 0.865-0.885 0.764-1.488 0.764h-0.794z"></path>
</symbol>
<symbol id="icon-Group-3" viewBox="0 0 136 32">
<path fill="#fff" style="fill: var(--color1, #fff)" opacity="0.3" d="M130.2 2.283l5.706 0.031c0 0-10.609 14.376-11.475 15.548-0.281 0.379-0.709 0.789-0.925 1.296-0.549 1.275-1.111 4.072-1.111 4.072l-5.222 0.026c0 0 0.813-2.915 0.779-4.468-0.030-1.356-0.722-2.711-1.111-4.072-0.392-1.377-0.926-4.072-0.926-4.072h5.368l0.741 2.962 8.175-11.322z"></path>
<path fill="#fff" style="fill: var(--color1, #fff)" opacity="0.3" d="M119.395 5.314c1.053 0.635 1.699 4.137 1.699 4.137s-5.511 0.081-8.509 0.081h-2.591l-3.147 13.697h-4.812c0 0 2.995-14.885 3.702-17.584 0.229-0.874 1.57-0.724 3.833-0.724h3.615c2.334 0 5.063-0.298 6.21 0.392zM96.991 11.985c0 0 0.15-0.879-0.509-1.897-0.563-0.868-1.083-1.070-2.564-1.116-4.181-0.131-4.1 2.967-4.1 2.967l7.172 0.046zM101.526 8.437c0.613 2.21-0.555 7.404-0.555 7.404s-6.099-0.102-9.44 0c-1.039 0.032-2.282-0.113-2.591 0.37-0.435 0.677 0.159 1.72 0.662 2.16 0.579 0.507 1.708 0.565 2.114 0.616 2.711 0.344 8.386 0.089 8.386 0.089l-0.983 4.353c0 0-8.020 0.402-12.031-0.555-0.792-0.189-1.534-0.57-2.036-1.11-0.137-0.148-0.256-0.349-0.385-0.524-0.103-0.139-0.405-0.596-0.54-0.957-0.916-2.441 0.107-7.118 1.111-9.625 0.116-0.29 0.263-0.659 0.417-0.972 0.192-0.39 0.355-0.831 0.509-1.064 0.103-0.161 0.232-0.265 0.339-0.416 0.124-0.18 0.268-0.354 0.401-0.509 0.37-0.429 0.79-0.733 1.296-1.11 1.671-1.252 4.696-2.223 8.329-1.851 1.368 0.141 3.434 0.629 4.442 2.036 0.27 0.376 0.404 1.122 0.555 1.666v-0zM79.454 4.905l4.666-0.027c0 0-2.601 12.336-3.926 18.352h-5.368c-3.751 0-7.092 0.465-8.514-2.221-1.379-2.608-0.063-6.896 0.555-9.81 0.437-2.062 1.357-6.276 1.357-6.276l4.835-0.044c0 0-1.366 6.561-1.935 9.838-0.204 1.174-0.623 2.279-0.185 3.146 0.416 0.826 1 0.885 2.776 0.926 0.563 0.013 2.406 0 2.406 0l3.332-13.882zM57.613 13.79c0.489-1.736 1.201-3.618 1.111-5.183-0.098-1.673-1.501-3.196-2.406-3.517-2.726-0.963-5.279 0.383-6.293 1.481-1.312 1.422-1.757 3.082-2.221 5.368-0.346 1.697-0.629 3.489 0 4.812 1.114 2.34 4.588 1.829 8.329 1.851 0.555-1.488 1.014-3.16 1.481-4.813zM64.091 6.941c0.533 3.876-1.512 8.153-2.921 11.874 1.436 0.13 2.695-0.020 2.786 0.087 0.094 0.139-0.963 4.44-1.331 4.452-1.14 0.030-4.918 0.061-6.493 0.061-5.14 0-9.949 0.335-12.401-2.221-0.996-1.038-1.684-2.819-1.851-4.072-0.278-2.091 0.070-4.394 0.555-6.293 0.439-1.714 1.001-3.332 1.851-4.813 2.16-3.77 5.917-6.569 12.216-5.923 1.222 0.126 2.976 0.661 4.072 1.296 0.076 0.044 0.341 0.255 0.401 0.292 1.481 0.942 2.83 3.191 3.115 5.26zM41.349 4.927c-0.311 1.416-0.622 3.021-0.95 4.42h-5.182c0.401-1.551 0.709-3.093 1.111-4.442 1.658 0 3.2 0.022 5.022 0.022zM35.032 10.643h4.998c-0.654 3.617-1.947 9.451-2.962 13.512-0.635 2.541-1.059 4.396-2.776 5.738-0.154 0.12-0.242 0.063-0.37 0.185-0.316 0.302-1.781 0.652-2.591 0.74-1.318 0.143-2.808 0.019-4.428-0.015 0.424-1.549 0.903-3.409 1.281-4.798 3.948 0.478 4.048-3.254 4.812-6.848 0.442-2.077 1.782-7.681 2.036-8.514z"></path>
<path fill="#fff" style="fill: var(--color1, #fff)" opacity="0.3" d="M23.371 20.083l-0.107 0.278c-1.825 3.554-5.059 5.734-9.671 5.83-2.156 0.044-4.211-0.509-5.553-1.11-2.896-1.301-5.333-3.715-6.663-6.293-1.909-3.696-2.253-8.838 1.716-12.679 0.061 0-0.481 0.833-0.42 0.833l-0.109 0.355c-2.86 8.953 5.951 16.625 14.515 15.748 2.058-0.211 4.683-1.338 6.293-2.961z"></path>
<path fill="#fff" style="fill: var(--color1, #fff)" opacity="0.3" d="M18.188 16.381c2.155 0.015 4.405-0.992 5.738-2.406-1.166 2.96-4.542 4.862-9.069 4.257-3.791-0.507-7.402-4.322-7.774-8.144-0.272-2.782 0.697-4.442 2.295-6.456-0.555 1.053-0.763 1.866-0.814 2.384-0.607 6.017 4.807 10.334 9.625 10.365z"></path>
<path fill="#fff" style="fill: var(--color1, #fff)" opacity="0.3" d="M23.71 8.907c-0.335 0.768-2.263 2.219-3.115 2.401-3.372 0.718-5.532-0.881-6.664-2.7-0.168-0.272-0.479-1.014-0.535-1.203-0.439-1.492-0.237-3.748 1.072-4.916-0.394 1.111-0.452 2.401-0.244 3.239 0.126 0.507 0.509 1.392 0.892 1.949 0.697 1.014 1.14 1.261 2.036 1.799 0.404 0.242 0.837 0.437 1.024 0.49 0.85 0.25 2.643 0.909 5.535-1.059z"></path>
</symbol>
<symbol id="icon-Group-4" viewBox="0 0 53 32">
<path fill="#59b6fb" style="fill: var(--color3, #59b6fb)" d="M9.303 0v7.216h-8.247v17.45h13.401v-24.666h-5.154zM9.303 20.616h-3.092v-9.204h3.092v9.204z"></path>
<path fill="#59b6fb" style="fill: var(--color3, #59b6fb)" d="M21.673 7.216h-5.154v17.524h5.154v-17.524z"></path>
<path fill="#59b6fb" style="fill: var(--color3, #59b6fb)" d="M21.673 0h-5.154v5.154h5.154v-5.154z"></path>
<path fill="#59b6fb" style="fill: var(--color3, #59b6fb)" d="M23.735 7.216v17.45h8.247v2.062h-8.247v4.197h13.401v-23.709h-13.401zM31.981 20.617h-3.093v-9.204h3.093v9.204z"></path>
<path fill="#59b6fb" style="fill: var(--color3, #59b6fb)" d="M39.197 7.216v17.45h8.247v2.062h-8.247v4.197h13.401v-23.709h-13.401zM47.444 20.617h-3.092v-9.204h3.092v9.204z"></path>
</symbol>
<symbol id="icon-LOGO-2" viewBox="0 0 241 32">
<path fill="#fff" style="fill: var(--color1, #fff)" opacity="0.3" d="M151.575 6.967l-1.833 6.603 7.863 0.005 0.2-0.66c1.555-5.729-2.789-6.901-4.539-6.901h-6.16c-2.984 0-6.712 0.358-8.008 4.981-1.103 4.036-1.751 5.828-0.229 7.846 0.926 1.224 3.178 1.563 6.289 2.213 2.335 0.521 1.947 1.953 1.558 3.452-0.326 1.106-1.005 1.758-2.11 1.758-0.712 0-1.554-0.489-1.231-1.628l0.637-2.468-7.997-0.005-0.649 2.408c-0.974 3.19 0.973 6.313 5.251 6.313h4.41c5.705 0 8.522-1.485 10.15-6.932 0.582-1.953 1.194-4.226 0.291-5.826-1.231-2.182-6.395-2.865-8.105-3.32-1.101-0.294-0.798-1.427-0.569-2.538 0.499-1.82 0.926-2.281 1.566-2.842l2.613-2.585c0.249-0.176 0.663-0.158 0.602 0.126zM28.672 15.138c2.445 0.845 5.753 2.866 4.188 8.187-1.685 5.729-5.318 7.56-11.284 7.56h-21.463l20.038-18.887-3.632 13.282h1.945c1.427 0 2.335-0.913 2.724-2.084l6.485-23.177c4.669 0 9.843 0.538 8.82 7.291-0.859 5.671-4.625 6.996-7.774 7.591-0.203 0.026-0.203 0.221-0.046 0.238z"></path>
<path fill="#fff" style="fill: var(--color1, #fff)" opacity="0.3" d="M27.335 0l-21.723 20.314 5.675-20.314h16.048z"></path>
<path fill="#fff" style="fill: var(--color1, #fff)" opacity="0.3" d="M56.523 30.883l6.874-24.868h8.040l-6.874 24.868h-8.040zM163.466 13.441l3.107-2.478h-7.261l1.363-4.949h16.533l-1.424 4.949h-4.346l-5.511 19.92h-8.041l4.048-14.647c0.295-1.171 0.658-2.107 1.531-2.794zM212.189 6.967l-6.61 23.916h8.039l5.189-18.878c1.037-4.036-0.907-5.991-3.762-5.991h-13.746l-6.873 24.869h8.041l5.107-18.622c0.566-1.859 0.989-2.34 1.562-2.87l2.496-2.572c0.202-0.119 0.651-0.202 0.558 0.148zM126.441 17.633l1.631-0.961c0.382-0.273 1.515-0.858 3.008-0.892h3.697l-1.362 4.818h-8.237l-1.037 3.647c-0.261 0.976 0.455 1.692 1.232 1.692h6.613l-1.362 4.947h-9.337c-4.28 0-6.031-3.71-5.253-6.313l3.696-13.607c1.168-4.558 5.058-4.949 8.040-4.949h9.727l-1.362 4.949h-6.677c-1.234 0-1.881 0.846-2.011 1.366l-1.415 4.942c-0.11 0.266-0.080 0.616 0.409 0.361zM109.783 6.967l-1.948 7.008 8.062-0.013 0.375-1.37c1.557-5.729-3.111-6.576-4.863-6.576h-6.096c-2.983 0-6.874 0.392-8.040 4.949l-3.696 13.607c-0.972 3.19 0.972 6.313 5.252 6.313h12.386l3.728-13.466h-8.044l-2.364 8.52h-1.685c-0.713 0-1.492-0.718-1.102-1.758l3.232-11.917c0.236-0.746 0.648-2.124 1.561-2.835l2.62-2.572c0.14-0.157 0.715-0.239 0.621 0.11zM51.548 6.973l-6.628 23.911h8.106c0 0 1.211-4.628 2.139-7.745 0.844-2.832-2.301-4.427-2.69-4.427-0.39 0-0.39-0.587 0-0.587 2.204-0.066 4.41-0.456 5.803-5.599 1.64-6.050-3.677-6.511-5.641-6.511h-12.191l-6.938 24.869h8.106l5.134-18.615c0.401-1.461 0.994-2.412 1.595-2.852l2.635-2.562c0.135-0.157 0.65-0.196 0.57 0.117zM229.305 17.633l1.631-0.961c0.382-0.273 1.519-0.858 3.008-0.892h3.697l-1.362 4.818h-8.234l-1.039 3.647c-0.258 0.976 0.455 1.692 1.231 1.692h6.614l-1.362 4.947h-9.336c-4.281 0-6.032-3.71-5.255-6.313l3.697-13.607c1.166-4.558 5.058-4.949 8.041-4.949h9.727l-1.362 4.949h-6.679c-1.232 0-1.882 0.846-2.009 1.366l-1.415 4.942c-0.11 0.266-0.081 0.616 0.408 0.361zM87.444 6.015h-11.737l-6.937 24.869h11.412c5.706 0 8.559-1.952 9.532-5.598l3.435-12.369c1.558-5.73-3.955-6.902-5.706-6.902zM86.801 6.961l-4.664 16.626c-0.842 2.734-2.916 2.345-3.89 2.345l3.746-13.678c0.439-1.404 0.955-2.34 1.582-2.847l2.604-2.559c0.206-0.189 0.778-0.205 0.621 0.113zM190.233 6.015h-4.993c-2.983 0-6.873 0.392-8.039 4.949l-3.697 13.607c-0.974 3.19 0.973 6.313 5.251 6.313h4.216c5.706 0 8.558-1.952 9.531-5.598l3.437-12.369c1.558-5.73-3.955-6.902-5.706-6.902zM189.526 6.954l-4.863 17.612c-0.323 1.106-1.232 1.69-1.946 1.69-0.713 0-1.555-0.519-1.167-1.563l3.363-12.436c0.542-1.793 1.014-2.374 1.555-2.873l2.495-2.572c0.174-0.153 0.629-0.119 0.562 0.141z"></path>
</symbol>
<symbol id="icon-LOGO-3" viewBox="0 0 200 32">
<path fill="#fff" style="fill: var(--color1, #fff)" opacity="0.3" d="M188.302 0.002l-3.892 11.849h-20.8l3.892-11.849h-11.082l-10.088 30.717h11.054l3.892-11.849h20.8l-3.892 11.849h11.082l10.088-30.717h-11.054z"></path>
<path fill="#fff" style="fill: var(--color1, #fff)" opacity="0.3" d="M144.371 14.182c-0.483-0.739-1.165-1.336-1.932-1.733-0.852-0.398-1.791-0.597-2.728-0.597h-24.296l1.364-4.262h31.883l2.528-7.587h-35.349c-1.080 0-2.131 0.199-3.126 0.597-1.137 0.398-2.16 0.995-3.069 1.762-0.796 0.767-1.762 1.563-2.359 2.529-0.71 0.938-1.307 1.989-1.733 3.097l-0.966 2.898c-0.256 1.023-0.369 2.074-0.398 3.126 0.171 0.966 0.398 1.932 0.796 2.529 0.483 0.739 1.165 1.336 1.932 1.762 0.824 0.455 1.762 0.71 2.728 0.767h24.295l-1.363 4.092h-31.911l-2.5 7.587h35.349c1.080 0 2.131-0.199 3.126-0.597 1.137-0.398 2.159-0.995 3.069-1.733 0.795-0.767 1.761-1.563 2.358-2.529 0.739-0.938 1.307-1.989 1.733-3.097l0.966-2.898c0.312-1.023 0.454-2.074 0.398-3.126-0.198-1.023-0.398-1.961-0.796-2.586z"></path>
<path fill="#fff" style="fill: var(--color1, #fff)" opacity="0.3" d="M100.867 4.691c-0.171-0.966-0.398-1.733-0.938-2.358-0.398-0.739-1.023-1.364-1.762-1.733-0.852-0.398-1.79-0.625-2.728-0.597h-27.762c-1.080 0-2.131 0.199-3.126 0.597-1.137 0.398-2.188 0.995-3.097 1.762-0.796 0.767-1.733 1.563-2.359 2.529-0.739 0.938-1.307 1.989-1.733 3.097l-7.388 22.733h11.082l7.587-23.102h20.971l-2.302 6.791h-14.776l-2.33 7.189h14.748l-2.927 9.15h10.912l7.559-22.96c0.313-1.023 0.426-2.046 0.369-3.097z"></path>
<path fill="#fff" style="fill: var(--color1, #fff)" opacity="0.3" d="M52.504 4.89c-0.057-0.881-0.313-1.762-0.767-2.529-0.398-0.796-1.108-1.421-1.932-1.733-0.852-0.426-1.79-0.625-2.728-0.597h-35.349l-2.529 7.587h32.024l-5.058 15.515h-32.025l-2.529 7.587h35.519c1.058-0.028 2.105-0.23 3.097-0.597 0.995-0.568 2.131-1.137 3.097-1.932 0.938-0.739 1.79-1.591 2.529-2.529 0.625-0.938 1.136-1.904 1.563-2.927l4.689-14.748c0.426-0.966 0.568-2.046 0.398-3.097z"></path>
<path fill="#fff" style="fill: var(--color1, #fff)" opacity="0.3" d="M21.815 11.852h-18.84l-2.529 7.019h19.038l2.33-7.019z"></path>
</symbol>
<symbol id="icon-LOGO-4" viewBox="0 0 186 32">
<path fill="#fff" style="fill: var(--color1, #fff)" opacity="0.3" d="M51.646 6.863h-16.015l-1.029 2.402h2.745l-4.347 9.609h-2.745l-1.144 2.517h18.074c4.461 0 6.635-2.974 8.35-6.978 1.716-3.546 2.974-7.55-3.889-7.55zM48.214 14.413c-0.915 2.174-1.83 4.461-4.004 4.461h-3.546l4.232-9.609h2.517c2.86 0.343 1.487 3.432 0.801 5.148zM60.682 6.863h12.926l-1.144 2.402h-2.745l-3.088 7.207c-1.144 3.088 5.376 4.004 7.092 0l3.089-7.207h-2.517l1.144-2.402h8.236l-1.144 2.402h-2.517l-3.203 7.207c-2.402 4.69-4.232 4.919-11.21 5.033-8.007 0.114-7.55-1.945-6.292-5.033l3.203-7.207h-2.86l1.029-2.402zM85.62 9.266h2.745l-4.118 9.609h-2.86l-1.029 2.517h8.35l1.258-2.517h-2.745l3.089-6.863 4.919 9.38h6.063l5.376-12.125h2.517l1.029-2.402h-8.35l-1.029 2.402h2.745l-3.203 7.092-4.919-9.494h-8.694l-1.144 2.402zM112.387 9.266h2.746l-4.118 9.609h-2.745l-1.030 2.517h19.104l2.859-6.749h-2.174l-3.889 4.232h-4.69l4.119-9.609h2.517l0.914-2.402h-12.582l-1.029 2.402zM146.133 6.749c-9.952 0-11.554 1.258-13.957 6.863-2.745 6.063-2.859 8.007 8.122 8.007 9.952 0 11.782-3.203 13.727-8.007 2.631-6.063 1.373-6.863-7.893-6.863zM147.391 12.24l-2.059 4.804c-0.801 1.716-2.517 2.174-3.432 2.174h-1.487c-0.915 0-3.318-0.229-2.174-3.203l2.059-4.69c1.030-1.83 2.517-2.173 3.432-2.173h1.715c0.915 0 2.974 0.801 1.945 3.089zM178.161 6.863h-18.302l-1.144 2.631h2.745l-4.118 9.38h-2.632l-1.029 2.517h12.353l1.144-2.517h-2.402l1.374-3.317h6.863c5.949 0 6.063-1.601 7.55-4.461 0.573-1.945 2.402-4.232-2.402-4.232zM173.014 11.325c-0.457 0.915-0.457 1.716-2.517 1.716h-3.203l1.488-3.546h2.974c2.288 0 1.373 1.373 1.258 1.83zM10.465 6.177l-8.007-6.177 25.28 14.184-25.28 14.871 8.465-6.863c-0.458 0.114-1.030 0.114-1.487 0.114-4.919 0-8.808-3.66-8.808-8.122s4.004-8.122 8.808-8.122c0.229 0.114 0.686 0.114 1.030 0.114zM10.351 22.192c4.576 0 8.236-3.546 8.236-7.893s-3.661-7.893-8.236-7.893c-4.576 0-8.236 3.546-8.236 7.893 0.114 4.347 3.775 7.893 8.236 7.893z"></path>
<path fill="#fff" style="fill: var(--color1, #fff)" opacity="0.3" d="M3.945 17.273l0.458-1.029h1.487l1.83-3.775h-1.716l0.458-1.030h7.55c2.745 0 3.66 1.601 3.432 3.088-0.114 1.144-0.801 2.745-4.347 2.745h-9.151zM11.152 16.243c1.373 0 2.288-0.915 2.631-1.83 0.229-0.686 0.229-1.945-1.258-2.059h-1.030l-1.83 3.889h1.487zM106.21 29.169c0 0.114 0 0.114 0 0-0.229 0.572 0.114 0.572 0.915 0.572h3.317c0.572 0 0.915-0.114 1.029-0.458s-0.229-0.457-1.029-0.457l-4.118-0.114c-1.945 0-2.517-0.343-1.945-1.487 0.229-0.572 0.572-0.915 1.144-1.144 0.801-0.343 1.716-0.343 3.089-0.343h4.004c1.944 0 2.631 0.343 2.173 1.373 0 0.114-0.114 0.229-0.114 0.229h-2.516c0.114-0.343-0.114-0.458-0.686-0.458h-2.974c-0.801 0-1.258 0-1.373 0.458-0.114 0.343 0.114 0.343 0.801 0.458l4.232 0.114c1.945 0 2.402 0.458 1.945 1.602-0.343 0.686-0.686 1.029-1.602 1.258-0.458 0.114-1.373 0.114-2.631 0.114h-3.432c-2.631 0-3.432-0.229-2.974-1.373 0 0 0.114-0.229 0.229-0.343h2.517zM123.482 27.11c0.687 0 0.801 0.229 0.687 0.572-0.229 0.457-0.571 0.686-1.258 0.686h-3.889l0.571-1.258h3.889zM124.169 25.852h-6.52l-2.288 5.033h2.631l0.573-1.258h4.918c1.945 0 2.746-0.572 3.432-1.83 0.343-0.915 0.343-1.373-0.457-1.716-0.573-0.229-1.258-0.229-2.288-0.229zM132.406 29.627c-1.602 0-2.174-0.114-1.831-0.915l0.343-0.686c0.344-0.801 1.030-1.029 2.746-1.029h1.715c1.601 0 2.174 0.114 1.83 0.915l-0.343 0.686c-0.343 0.801-1.030 0.915-2.745 0.915h-1.715v0.114zM131.147 30.885h3.088c1.601 0 2.631 0 3.432-0.343 0.8-0.343 1.258-0.801 1.601-1.487l0.687-1.373c0.343-0.801 0.229-1.258-0.23-1.487-0.571-0.343-1.601-0.343-3.202-0.343h-3.089c-1.601 0-2.631 0-3.431 0.343-0.801 0.343-1.258 0.801-1.602 1.602l-0.571 1.373c-0.343 0.686-0.343 1.144 0.229 1.487 0.573 0.229 1.601 0.229 3.089 0.229zM148.878 27.11c0.686 0 0.8 0.229 0.686 0.572-0.229 0.457-0.457 0.686-1.258 0.686h-4.118l0.571-1.258h4.119zM149.563 25.852h-6.863l-2.288 5.033h2.631l0.573-1.258h3.889c0.8 0 1.144 0.114 0.914 0.572l-0.343 0.686h2.631l0.458-1.029c0.229-0.458-0.115-0.801-0.915-0.915 1.144-0.114 1.715-0.572 2.058-1.373 0.573-1.373-0.229-1.716-2.745-1.716zM155.741 30.885l1.717-3.775h-3.546l0.571-1.258h9.723l-0.571 1.258h-3.546l-1.717 3.775h-2.631zM184.11 6.863v0.229h-0.573v1.487h-0.229v-1.487h-0.457v-0.229h1.258zM185.711 8.579l-0.114-1.030v-0.458c0 0.114-0.114 0.343-0.114 0.458l-0.343 0.915h-0.229l-0.344-1.030c0-0.114-0.114-0.343-0.114-0.458v0.458l-0.114 1.030h-0.229l0.114-1.716h0.343l0.344 0.915c0 0.114 0.114 0.229 0.114 0.458 0-0.114 0.114-0.343 0.114-0.458l0.343-0.915h0.343l0.114 1.716h-0.229v0.114z"></path>
</symbol>
</defs>
</svg>
